<?xml version="1.0" encoding="utf-8"?>
<!-- Generator: Adobe Illustrator 19.0.0, SVG Export Plug-In . SVG Version: 6.00 Build 0)  -->
<svg version="1.1" id="Layer_3" xmlns="http://www.w3.org/2000/svg" xmlns:xlink="http://www.w3.org/1999/xlink" x="0px" y="0px"
	 viewBox="0 0 1039 584.5" style="enable-background:new 0 0 1039 584.5;" xml:space="preserve">
<style type="text/css">
	.st0{fill:#FFFFFF;}
	.st1{fill:#696B6D;}
	.st2{fill:#68696D;}
	.st3{fill:#DD7F1D;}
	.st4{fill:#696A6F;}
	.st5{fill:#DF7F1B;}
</style>
<g>
	<g>
		<g>
			<g>
				<g>
					<circle class="st0" cx="519.8" cy="216.3" r="207.3"/>
				</g>
			</g>
			<g>
				<g>
					<path class="st1" d="M519.8,432.5c-57.8,0-112.1-22.5-152.9-63.3c-40.8-40.8-63.3-95.1-63.3-152.9S326,104.2,366.8,63.3
						C407.7,22.5,462,0,519.8,0s112.1,22.5,152.9,63.3c40.8,40.8,63.3,95.1,63.3,152.9s-22.5,112.1-63.3,152.9
						C631.8,410,577.5,432.5,519.8,432.5z M519.8,18c-109.3,0-198.3,88.9-198.3,198.3s88.9,198.3,198.3,198.3S718,325.6,718,216.3
						S629.1,18,519.8,18z"/>
				</g>
			</g>
		</g>
		<g>
			<g>
				<polygon class="st2" points="378.3,313.4 642.4,90 664.2,118 413.3,328.1 384.8,328.1 				"/>
			</g>
		</g>
		<g>
			<g>
				<path class="st3" d="M520,404.5c-103.7,0-188-84.3-188-188c0-103.7,84.3-188,188-188s188,84.3,188,188
					C708,320.2,623.7,404.5,520,404.5z M520,46.5c-93.7,0-170,76.3-170,170s76.3,170,170,170s170-76.3,170-170S613.7,46.5,520,46.5z
					"/>
			</g>
		</g>
		<g>
			<g>
				<path class="st2" d="M524.6,90l-2.8,10.4h14C535.8,100.4,531.6,90.5,524.6,90z"/>
			</g>
		</g>
		<g>
			<g>
				<path class="st2" d="M549.3,104c1.9,2.6,5.4,3.5,8.4,2.8c1.6-0.4,3-1.2,4-2.5c0.5-0.7,2.4-4.2,0.7-4.5c-3.6-0.7-7.2-1-10.8-1.1
					c-0.8,0-1.7,0-2.4,0.5c-0.5,0.4-0.8,1.1-0.8,1.7C548.3,102.1,548.7,103.1,549.3,104z"/>
			</g>
		</g>
		<g>
			<g>
				<path class="st2" d="M567.7,96.7c-0.5,0.6-0.7,1.4-0.6,2.3c0.2,1.7,1.6,4.1,3.6,3.6c2.4-0.5,5.4-0.9,7.6-1.9
					c1.5-0.6,2.9-2,3-3.7c0.5-5.8-8.4-2.9-11.2-2C569.1,95.5,568.3,96,567.7,96.7z"/>
			</g>
		</g>
		<g>
			<g>
				<path class="st2" d="M583,91.4c-0.3,0.7-0.4,1.3-0.2,1.8c2.3,4,21.1-5.2,9.1-9.7C590.5,82.9,584.4,88.2,583,91.4z"/>
			</g>
		</g>
		<g>
			<g>
				<path class="st2" d="M525.4,90l0.9,10.4h-14C512.3,100.4,518.4,90.5,525.4,90z"/>
			</g>
		</g>
		<g>
			<g>
				<path class="st2" d="M498.7,104c-1.9,2.6-5.4,3.5-8.4,2.8c-1.6-0.4-3-1.2-4-2.5c-0.5-0.7-2.4-4.2-0.7-4.5
					c3.6-0.7,7.2-1,10.8-1.1c0.8,0,1.7,0,2.4,0.5c0.5,0.4,0.8,1.1,0.8,1.7C499.7,102.1,499.4,103.1,498.7,104z"/>
			</g>
		</g>
		<g>
			<g>
				<path class="st2" d="M480.3,96.7c0.5,0.6,0.7,1.4,0.6,2.3c-0.2,1.7-1.6,4.1-3.6,3.6c-2.4-0.5-5.4-0.9-7.6-1.9
					c-1.5-0.6-2.9-2-3-3.7c-0.5-5.8,8.4-2.9,11.2-2C478.9,95.5,479.8,96,480.3,96.7z"/>
			</g>
		</g>
		<g>
			<g>
				<path class="st2" d="M465.1,91.4c0.3,0.7,0.4,1.3,0.2,1.8c-2.3,4-21.1-5.2-9.1-9.7C457.6,82.9,463.6,88.2,465.1,91.4z"/>
			</g>
		</g>
		<g>
			<g>
				<path class="st2" d="M544,106.9c-3-1.3-9.6,0.1-12.9,0.1c-2.4,0-4.8,0-7.1,0.1c-3.8,0-7.7-0.1-11.5-0.1c-2.6,0-9.2-2-10.3,1.5
					c-0.4,1.2-0.1,2.4,0.3,3.5c1.8,5.1,5.7,8,9.6,11.4c1.2,1.1,5.4,5.7,7.2,5.7c0,0,2,0,2,0v-18.3l2.7-0.1l2.7,0.1v18.3c0,0,2,0,2,0
					c2.9,0,10.2-7.6,12.2-9.8C543.4,116.7,548.8,108.9,544,106.9z"/>
			</g>
		</g>
		<g>
			<g>
				<path class="st2" d="M547.6,140.2c-2.8-3.4-7.4-6.9-11.6-6.6c-2.4,0.2-4,2.2-5.8,3.9c-1.9,1.8-4,2.7-6.2,3.5
					c-2.2-0.8-4.3-1.7-6.2-3.5c-1.8-1.7-3.3-3.7-5.8-3.9c-4.2-0.3-8.8,3.2-11.6,6.6c-5.9,7.2-15.2,24.9-8.2,34.6
					c2.8,3.9,11.5-0.1,15.3,0.2c4.7,0.3,8.4,1.9,11.8-3.1c1.9-1.9,3.5-2.8,4.7-3.2c1.2,0.4,2.8,1.3,4.7,3.2c3.4,5.1,7,3.5,11.8,3.1
					c3.8-0.3,12.5,3.8,15.3-0.2C562.8,165.1,553.5,147.4,547.6,140.2z"/>
			</g>
		</g>
		<g>
			<g>
				<path class="st2" d="M526.3,180.9L526.3,180.9c-0.8-0.1-1.5-0.1-2.3,0c-0.7,0-1.5,0-2.3,0v0.1c-45.4,1-43.7,12.8-43.7,12.8h43.7
					h4.5H570C570,193.8,571.6,182,526.3,180.9z"/>
			</g>
		</g>
		<g>
			<g>
				<path class="st2" d="M522.5,201.7c-53.7-0.2-58.5,14.5-58.5,14.5h56.2h4.4H581C581,216.2,576.2,201.6,522.5,201.7z"/>
			</g>
		</g>
		<g>
			<g>
				<path class="st2" d="M579.1,225.7c-9.7-0.3-44-1.7-56.1-2.3v-0.2c0,0-0.8,0-2.1,0.1c-1.4-0.1-2.1-0.1-2.1-0.1v0.2
					c-12.1,0.5-46.5,2-56.1,2.3c-11.8,0.4-7.3,18.2-7.3,18.2h63.5h4.3h63.5C586.4,243.9,590.9,226.1,579.1,225.7z"/>
			</g>
		</g>
		<g>
			<g>
				<path class="st2" d="M572.7,251.1h-50.6c-0.3,0-0.6,0-0.9,0.1c-0.3,0-0.6-0.1-0.9-0.1h-50.6c-4.6,0-8.3,4.2-8.3,9.3
					c0,5.1,3.7,9.3,8.3,9.3h50.6c0.3,0,0.6,0,0.9-0.1c0.3,0,0.6,0.1,0.9,0.1h50.6c4.6,0,8.3-4.2,8.3-9.3
					C581,255.3,577.2,251.1,572.7,251.1z"/>
			</g>
		</g>
		<g>
			<g>
				<path class="st2" d="M556,276.9h-37.5h0H481c-4,0-7.2,4.2-7.2,9.3c0,5.1,3.3,9.3,7.2,9.3h37.5h0H556c4,0,7.2-4.2,7.2-9.3
					C563.2,281,559.9,276.9,556,276.9z"/>
			</g>
		</g>
		<g>
			<g>
				<path class="st2" d="M545.9,305.6h-22.7h-12h-22.7l-0.5,1.3c0,2.8,18.3,13.5,18.3,13.5s2.5-2.6,4.8-7.4c1.5-3.1,3.9-4.5,6.2-5
					c2.3,0.5,4.7,1.9,6.2,5c2.3,4.8,4.8,7.4,4.8,7.4s18.3-10.8,18.3-13.5L545.9,305.6z"/>
			</g>
		</g>
		<g>
			<g>
				<path class="st2" d="M480.9,131.4c0,0-6.4,0.5-2.9,3c3.5,2.5,1.9,5.8,6.8,6s9.7-3,9.9-4.5s-0.3-3.8-2.6-4.5
					C490,130.6,480.9,131.4,480.9,131.4z"/>
			</g>
		</g>
		<g>
			<g>
				<path class="st2" d="M475.3,127.9c2,9.9-19.1,5.1-23.3,3.5c-1.1-0.4-2.2-0.9-3.1-1.6c-2-1.6-2.8-6.1-2-8.5
					C446.9,121.2,475,126.4,475.3,127.9z"/>
			</g>
		</g>
		<g>
			<g>
				<path class="st2" d="M437.2,118c0.6,0.1,1.1,0.3,1.5,0.8c0.9,1.1,0.2,4.1-0.5,5.2c-2,2.8-7.5,2-10.5,2c-4,0-7.2-1.5-10.9-3
					c-2.4-1-5.3-2.1-7-4.2c-1.2-1.5-3.1-6.3-0.3-7.3c2-0.7,5,3.1,6.5,4.1c4.8,3.2,10.5,3.2,16,2.8
					C433.4,118.4,435.6,117.8,437.2,118z"/>
			</g>
		</g>
		<g>
			<g>
				<path class="st2" d="M477.9,152c2,9.9-19.1,5.1-23.3,3.5c-1.1-0.4-2.2-0.9-3.1-1.6c-2-1.6-2.8-6.1-2-8.5
					C449.5,145.4,477.6,150.6,477.9,152z"/>
			</g>
		</g>
		<g>
			<g>
				<path class="st2" d="M439.9,142.2c0.6,0.1,1.1,0.3,1.5,0.8c0.9,1.1,0.2,4.1-0.5,5.2c-2,2.8-7.5,2-10.5,2c-4,0-7.2-1.5-10.9-3
					c-2.4-1-5.3-2.1-7-4.2c-1.2-1.5-3.1-6.3-0.3-7.3c2-0.7,5,3.1,6.5,4.1c4.8,3.2,10.5,3.2,16,2.8
					C436,142.5,438.3,141.9,439.9,142.2z"/>
			</g>
		</g>
		<g>
			<g>
				<path class="st2" d="M473.7,169.5c4.2,8-15.1,9.1-19.2,8.8c-1-0.1-2.1-0.2-3-0.6c-2.1-0.9-3.9-4.6-3.8-6.8
					C447.6,170.8,473.1,168.3,473.7,169.5z"/>
			</g>
		</g>
		<g>
			<g>
				<path class="st2" d="M437.4,166.5c0.5,0.1,1,0.3,1.3,0.7c0.8,1,0.2,3.7-0.4,4.6c-1.8,2.5-6.7,1.8-9.4,1.8
					c-3.6,0-6.5-1.3-9.7-2.6c-2.2-0.9-4.7-1.9-6.3-3.7c-1.1-1.3-2.8-5.6-0.3-6.5c1.8-0.6,4.5,2.8,5.8,3.6c4.3,2.9,9.4,2.9,14.3,2.5
					C433.9,166.8,435.9,166.3,437.4,166.5z"/>
			</g>
		</g>
		<g>
			<g>
				<path class="st2" d="M569.7,131.8c0,0,6.4,0.5,2.9,3s-1.9,5.8-6.8,6c-4.9,0.3-9.7-3-9.9-4.5c-0.2-1.5,0.3-3.8,2.6-4.5
					S569.7,131.8,569.7,131.8z"/>
			</g>
		</g>
		<g>
			<g>
				<path class="st2" d="M575.4,128.3c-2,9.9,19.1,5.1,23.3,3.5c1.1-0.4,2.2-0.9,3.1-1.6c2-1.6,2.8-6.1,2-8.5
					C603.8,121.7,575.7,126.9,575.4,128.3z"/>
			</g>
		</g>
		<g>
			<g>
				<path class="st2" d="M613.4,118.5c-0.6,0.1-1.1,0.3-1.5,0.8c-0.9,1.1-0.2,4.1,0.5,5.2c2,2.8,7.5,2,10.5,2c4,0,7.2-1.5,10.9-3
					c2.4-1,5.3-2.1,7-4.2c1.2-1.5,3.1-6.3,0.3-7.3c-2-0.7-5,3.1-6.5,4.1c-4.8,3.2-10.5,3.2-16,2.8
					C617.2,118.8,615,118.2,613.4,118.5z"/>
			</g>
		</g>
		<g>
			<g>
				<path class="st2" d="M572.8,152.5c-2,9.9,19.1,5.1,23.3,3.5c1.1-0.4,2.2-0.9,3.1-1.6c2-1.6,2.8-6.1,2-8.5
					C601.1,145.8,573.1,151,572.8,152.5z"/>
			</g>
		</g>
		<g>
			<g>
				<path class="st2" d="M610.8,142.6c-0.6,0.1-1.1,0.3-1.5,0.8c-0.9,1.1-0.2,4.1,0.5,5.2c2,2.8,7.5,2,10.5,2c4,0,7.2-1.5,10.9-3
					c2.4-1,5.3-2.1,7-4.2c1.2-1.5,3.1-6.3,0.3-7.3c-2-0.7-5,3.1-6.5,4.1c-4.8,3.2-10.5,3.2-16,2.8
					C614.6,143,612.4,142.4,610.8,142.6z"/>
			</g>
		</g>
		<g>
			<g>
				<path class="st2" d="M577,169.9c-4.2,8,15.1,9.1,19.2,8.8c1-0.1,2.1-0.2,3-0.6c2.1-0.9,3.9-4.6,3.8-6.8
					C603,171.3,577.6,168.8,577,169.9z"/>
			</g>
		</g>
		<g>
			<g>
				<path class="st2" d="M613.3,167c-0.5,0.1-1,0.3-1.3,0.7c-0.8,1-0.2,3.7,0.4,4.6c1.8,2.5,6.7,1.8,9.4,1.8c3.6,0,6.5-1.3,9.7-2.6
					c2.2-0.9,4.7-1.9,6.3-3.7c1.1-1.3,2.8-5.6,0.3-6.5c-1.8-0.6-4.5,2.8-5.8,3.6c-4.3,2.9-9.4,2.9-14.3,2.5
					C616.7,167.3,614.7,166.7,613.3,167z"/>
			</g>
		</g>
	</g>
	<g>
		<g>
			<path class="st0" d="M21,335.9L6,368.5v107c0,0-7.1,33,7.5,38s56.2,14.6,56.2,14.6l355.5,39.7l87.1,9.7l50.9-3.8l347.9-39.1
				l106.5-14.5c0,0,15.3-15,15.3-26.8c0-11.8,0-97.8,0-97.8l-2.8-27.3l-13.7-37.7L21,335.9z"/>
		</g>
	</g>
	<g>
		<g>
			<path class="st4" d="M481.2,338h-455c-4.1,0-7.5-3.4-7.5-7.5l0,0c0-4.1,3.4-7.5,7.5-7.5h455c4.1,0,7.5,3.4,7.5,7.5l0,0
				C488.7,334.6,485.3,338,481.2,338z"/>
		</g>
	</g>
	<g>
		<g>
			<path class="st4" d="M1010.2,338h-455c-4.1,0-7.5-3.4-7.5-7.5l0,0c0-4.1,3.4-7.5,7.5-7.5h455c4.1,0,7.5,3.4,7.5,7.5l0,0
				C1017.7,334.6,1014.3,338,1010.2,338z"/>
		</g>
	</g>
	<g>
		<g>
			<path class="st5" d="M975.8,501.5H62.2c-17.1,0-31.2-14-31.2-31.2v-64.6c0-17.1,14-31.2,31.2-31.2h913.6
				c17.1,0,31.2,14,31.2,31.2v64.6C1007,487.5,993,501.5,975.8,501.5z"/>
		</g>
	</g>
	<g>
		<g>
			<path class="st2" d="M520.8,584.5l-0.7-0.1l-483.3-54C16.5,530.3,0,513.7,0,493.3V386.7c0-20.5,16.7-37.2,37.2-37.2h964.6
				c20.5,0,37.2,16.7,37.2,37.2v106.6c0,20.4-16.5,37-36.8,37.2L520.8,584.5z M37.2,361.5c-13.9,0-25.2,11.3-25.2,25.2v106.6
				c0,13.9,11.3,25.2,25.2,25.2l0.7,0l482.9,53.9l480.7-54h0.3c13.9,0,25.2-11.3,25.2-25.2V386.7c0-13.9-11.3-25.2-25.2-25.2H37.2z"
				/>
		</g>
	</g>
	<g>
		<g>
			<path class="st5" d="M518.6,547c-14.2,0-414.7-41.9-460.3-46.7c-6.3-0.7-10.9-6.3-10.2-12.6c0.7-6.3,6.3-10.9,12.6-10.2
				c177.2,18.6,445,46.3,457.9,46.6c12.9-0.3,278.9-28,454.9-46.6c6.3-0.7,12,3.9,12.6,10.2c0.7,6.3-3.9,12-10.2,12.6
				C930.7,505.1,532.8,547,518.6,547z"/>
		</g>
	</g>
	<g>
		<g>
			<g>
				<path class="st0" d="M95,467v-56h10v46.9h38v9.1H95z"/>
			</g>
		</g>
		<g>
			<g>
				<path class="st0" d="M160.1,467v-56h10v56H160.1z"/>
			</g>
		</g>
		<g>
			<g>
				<path class="st0" d="M190.1,455.6v-33c0-4.1,0.9-7.1,2.7-8.8c1.8-1.8,4.7-2.7,8.8-2.7h33.3c4.1,0,7.1,0.9,8.8,2.7
					c1.8,1.8,2.7,4.7,2.7,8.8v5.8h-10v-8.2h-36.3v37.8h36.3v-9h10v6.6c0,4.1-0.9,7.1-2.7,8.8c-1.8,1.8-4.7,2.7-8.8,2.7h-33.3
					c-4.1,0-7.1-0.9-8.8-2.7C191,462.5,190.1,459.6,190.1,455.6L190.1,455.6z"/>
			</g>
		</g>
		<g>
			<g>
				<path class="st0" d="M265.2,467v-56h55v9.1l-45-0.1V434h27.3v9.1h-27.3v14.8h45v9.1H265.2z"/>
			</g>
		</g>
		<g>
			<g>
				<path class="st0" d="M388.6,467v-46.9h-22.5V411h55v9.1h-22.5V467H388.6z"/>
			</g>
		</g>
		<g>
			<g>
				<path class="st0" d="M482.3,467l-17.5-22.9h-18.5V467h-10v-56h44.3c4.1,0,7.1,0.9,8.8,2.7c1.8,1.8,2.7,4.7,2.7,8.8v10.1
					c0,4.1-0.9,7.1-2.7,8.8c-1.8,1.8-4.7,2.7-8.8,2.7h-4.1l17.9,22.9H482.3z M477.5,435c1.7,0,2.8-0.4,3.6-1.1
					c0.7-0.7,1.1-1.9,1.1-3.6v-5.6c0-1.7-0.4-2.8-1.1-3.6c-0.7-0.7-1.9-1.1-3.6-1.1h-31.2V435H477.5z"/>
			</g>
		</g>
		<g>
			<g>
				<path class="st0" d="M522.7,467c-4.1,0-7.1-0.9-8.8-2.7c-1.8-1.8-2.7-4.7-2.7-8.8v-33c0-4.1,0.9-7.1,2.7-8.8
					c1.8-1.8,4.7-2.7,8.8-2.7h38.4c4.1,0,7.1,0.9,8.8,2.7c1.8,1.8,2.7,4.7,2.7,8.8v33c0,4.1-0.9,7.1-2.7,8.8
					c-1.8,1.8-4.7,2.7-8.8,2.7H522.7z M562.6,458V420h-41.4V458H562.6z"/>
			</g>
		</g>
		<g>
			<g>
				<path class="st0" d="M603.3,467c-4.1,0-7.1-0.9-8.8-2.7c-1.8-1.8-2.7-4.7-2.7-8.8v-33c0-4.1,0.9-7.1,2.7-8.8
					c1.8-1.8,4.7-2.7,8.8-2.7h38.4c4.1,0,7.1,0.9,8.8,2.7c1.8,1.8,2.7,4.7,2.7,8.8v33c0,4.1-0.9,7.1-2.7,8.8
					c-1.8,1.8-4.7,2.7-8.8,2.7H603.3z M643.3,458V420h-41.4V458H643.3z"/>
			</g>
		</g>
		<g>
			<g>
				<path class="st0" d="M672.5,467v-56h45.9c4.1,0,7.1,0.9,8.8,2.7c1.8,1.8,2.7,4.7,2.7,8.8v10.1c0,4.1-0.9,7.1-2.7,8.8
					c-1.8,1.8-4.7,2.7-8.8,2.7h-35.9V467H672.5z M715.3,435c1.7,0,2.8-0.4,3.6-1.1s1.1-1.9,1.1-3.6v-5.6c0-1.7-0.4-2.8-1.1-3.6
					s-1.9-1.1-3.6-1.1h-32.8V435H715.3z"/>
			</g>
		</g>
		<g>
			<g>
				<path class="st0" d="M748.3,467v-56h55v9.1l-45-0.1V434h27.3v9.1h-27.3v14.8h45v9.1H748.3z"/>
			</g>
		</g>
		<g>
			<g>
				<path class="st0" d="M867.3,467l-17.5-22.9h-18.5V467h-10v-56h44.3c4.1,0,7.1,0.9,8.8,2.7c1.8,1.8,2.7,4.7,2.7,8.8v10.1
					c0,4.1-0.9,7.1-2.7,8.8c-1.8,1.8-4.7,2.7-8.8,2.7h-4.1l17.9,22.9H867.3z M862.5,435c1.7,0,2.8-0.4,3.6-1.1
					c0.7-0.7,1.1-1.9,1.1-3.6v-5.6c0-1.7-0.4-2.8-1.1-3.6c-0.7-0.7-1.9-1.1-3.6-1.1h-31.2V435H862.5z"/>
			</g>
		</g>
		<g>
			<g>
				<path class="st0" d="M939.6,426.2v-6.1h-33.4v10c0,1.4,0.3,2.4,0.9,3c0.6,0.6,1.6,0.9,3,0.9h29.7c4.1,0,7.1,0.9,8.8,2.7
					c1.8,1.8,2.7,4.7,2.7,8.8v10c0,4.1-0.9,7.1-2.7,8.8c-1.8,1.8-4.7,2.7-8.8,2.7h-32c-4.1,0-7.1-0.9-8.8-2.7
					c-1.8-1.8-2.7-4.7-2.7-8.8v-4.6h10v7h35v-11c0-1.4-0.3-2.4-0.9-3c-0.6-0.6-1.6-0.9-3-0.9h-29.7c-4.1,0-7.1-0.9-8.8-2.7
					c-1.8-1.8-2.7-4.7-2.7-8.8v-9c0-4.1,0.9-7.1,2.7-8.8c1.8-1.8,4.7-2.7,8.8-2.7h30.4c4.1,0,7.1,0.9,8.8,2.7
					c1.8,1.8,2.7,4.7,2.7,8.8v3.7H939.6z"/>
			</g>
		</g>
	</g>
	<g>
		<g>
			<path class="st5" d="M50.7,499.3c0,0,3.8,2.2,21.8,5.2S518.6,547,518.6,547l-37.1-13.3l-246.7-26.7L55.5,481.8L50.7,499.3z"/>
		</g>
	</g>
	<g>
		<g>
			<path class="st0" d="M37.1,488.8c0,0,5.5,9.7,20.4,12.7s-8.1,10.7-8.1,10.7L31,504.8L37.1,488.8z"/>
		</g>
	</g>
	<g>
		<g>
			<path class="st5" d="M981.7,500.9c0,0-18.7,2.3-32,3.8s-291.5,28.5-291.5,28.5L872,494h102.8L981.7,500.9z"/>
		</g>
	</g>
</g>
</svg>
